<svg width="30" height="30" viewBox="0 0 30 30" fill="none" xmlns="http://www.w3.org/2000/svg">
<circle cx="15" cy="15" r="14.5" stroke="#646464"/>
<path d="M8.49645 10.5455V20H7.06534V11.9766H7.00994L4.74787 13.4538V12.0874L7.10689 10.5455H8.49645ZM11.054 20V18.9659L14.2532 15.6513C14.5948 15.2912 14.8764 14.9757 15.098 14.7049C15.3227 14.431 15.4904 14.1709 15.6012 13.9247C15.712 13.6785 15.7674 13.4169 15.7674 13.1399C15.7674 12.826 15.6935 12.5552 15.5458 12.3274C15.3981 12.0966 15.1965 11.9196 14.9411 11.7965C14.6856 11.6703 14.3978 11.6072 14.0778 11.6072C13.7392 11.6072 13.4438 11.6765 13.1914 11.815C12.939 11.9535 12.7451 12.1489 12.6097 12.4013C12.4743 12.6536 12.4066 12.9491 12.4066 13.2876H11.0447C11.0447 12.7121 11.1771 12.2089 11.4418 11.7781C11.7064 11.3472 12.0696 11.0133 12.5312 10.7763C12.9929 10.5362 13.5176 10.4162 14.1055 10.4162C14.6995 10.4162 15.2227 10.5347 15.6751 10.7717C16.1306 11.0056 16.486 11.3256 16.7415 11.7319C16.9969 12.1351 17.1246 12.5906 17.1246 13.0984C17.1246 13.4492 17.0585 13.7924 16.9261 14.1278C16.7969 14.4633 16.5707 14.8372 16.2475 15.2496C15.9244 15.659 15.475 16.156 14.8995 16.7408L13.0206 18.7074V18.7766H17.277V20H11.054ZM21.8242 18.4119V12.1705H23.0661V18.4119H21.8242ZM19.3267 15.9098V14.6726H25.5682V15.9098H19.3267Z" fill="#646464"/>
</svg>
