<svg width="211" height="44" viewBox="0 0 211 44" fill="none" xmlns="http://www.w3.org/2000/svg">
<path d="M19.4673 27.4674L1.6537 0.306869H9.68088L19.4659 15.1721L29.2536 0.305529H38.8198V38.3646H31.6722V8.80184L19.4686 27.4688L19.4673 27.4674ZM7.14758 38.4209H0V29.926L7.14758 19.0073V38.4209ZM48.4928 38.4209V0.306869H55.6403V28.5854L74.112 0.306869H82.4688V38.4209H75.5415V10.5982L57.1793 38.4209H48.4928ZM136.333 38.4209V0.306869H143.48V28.5854L161.953 0.306869H170.309V38.4209H163.382V10.8247L145.242 38.4209H136.333ZM194.07 0.306869C204.276 0.141984 209.325 6.0095 211 9.24823L205.464 12.3047C202.742 6.72803 197.148 5.90092 194.07 6.07117C189.588 6.31649 182.298 9.64906 182.298 19.5744C182.298 29.4984 190.326 32.2733 194.34 32.4194C200.777 32.4194 204.404 28.4889 205.431 26.3468L211 29.5399C206.42 37.3566 198.769 38.3472 194.34 38.3472C181.001 38.3472 175.548 27.0398 175.548 19.5744C175.548 7.77231 183.972 0.306869 194.07 0.306869Z" fill="#FC4C00"/>
<path fill-rule="evenodd" clip-rule="evenodd" d="M95.0031 43.8973V38.2644H123.756V43.841H130.957V32.2856H124.911V0.307129H96.761C96.7069 28.5294 92.5279 32.2856 91.374 32.2856H87.7461V43.8973H95.0031ZM117.874 6.23095H103.468C103.138 23.8912 100.279 31.3914 99.0701 32.2856H117.871V6.23095H117.874Z" fill="#FC4C00"/>
</svg>
